<svg xmlns="http://www.w3.org/2000/svg" xmlns:xlink="http://www.w3.org/1999/xlink" width="50.3" height="54.63" viewBox="0 0 50.3 54.63">
  <defs>
    <clipPath id="clip-path">
      <rect id="Rectángulo_38" data-name="Rectángulo 38" width="50.3" height="54.63" fill="#5bdceb"/>
    </clipPath>
  </defs>
  <g id="Grupo_57" data-name="Grupo 57" transform="translate(0 0)">
    <g id="Grupo_56" data-name="Grupo 56" transform="translate(0 0)" clip-path="url(#clip-path)">
      <path id="Trazado_20" data-name="Trazado 20" d="M20.025,59.249c-4.383,1.412-6.634-.014-7.53-3.815a8.521,8.521,0,0,0-1.049-2.5c-2.615-4.209-2.338-8.173,1.061-11.772,3.1-3.278,2.492-7.141,2.308-11.31C9.705,35.237,7.1,35.692,0,32.58l1.382-4.632c.459-.094.692-.215.884-.169C7.909,29.15,7.6,30.63,11.139,24.06c3.216-5.978,7.525-8.231,14.19-7.352a6.785,6.785,0,0,1,3.222,1.638c4.355,3.7,4.323,3.737,9.375.505L40.9,22.72c-4.28,5.308-8.621,5.7-15.057.987v6.9c0,.226.019.455,0,.68-.822,8.737-.25,17.03,8.12,22.806L29.1,57.952c-3.571-5.5-9.812-9.193-8.7-17.177-4.769,4.332-5.176,5.874-3.214,11,.964,2.514,1.913,5.035,2.841,7.479" transform="translate(0 -5.154)" fill="#5bdceb"/>
      <path id="Trazado_21" data-name="Trazado 21" d="M61.686,41.392c0,3.306.039,5.544-.019,7.778-.023.881.054,2.174-.457,2.558a19.419,19.419,0,0,1-5.287,2.919c-.487.164-2.406-1.907-2.256-2.177a25.767,25.767,0,0,1,3.427-4.53c.312-.352,1.056-.32,1.839-.527V37.056c5.292-.489,8.253,2.642,8.1,8.445l-5.344-4.109" transform="translate(-16.735 -11.542)" fill="#5bdceb"/>
      <path id="Trazado_22" data-name="Trazado 22" d="M17.748,5.547A5.3,5.3,0,0,1,22.924.005a5.327,5.327,0,0,1,5.72,5.34,5.319,5.319,0,0,1-5.519,5.546,5.308,5.308,0,0,1-5.378-5.345" transform="translate(-5.535 0)" fill="#5bdceb"/>
    </g>
  </g>
</svg>
